<svg width="126" height="22" viewBox="0 0 126 22" fill="none" xmlns="http://www.w3.org/2000/svg">
<path d="M0.715094 6.384C0.715094 4.66667 1.36843 3.35067 2.67509 2.436C4.00043 1.50267 5.64309 1.036 7.60309 1.036C9.97376 1.036 12.0178 1.53067 13.7351 2.52V5.572C12.0738 4.452 10.1138 3.91067 7.85509 3.948C5.26043 3.948 3.96309 4.74133 3.96309 6.328C3.96309 7.09333 4.34576 7.73733 5.11109 8.26C5.87643 8.764 6.80976 9.184 7.91109 9.52C9.01243 9.856 10.1138 10.2387 11.2151 10.668C12.3164 11.0973 13.2498 11.7507 14.0151 12.628C14.7804 13.4867 15.1631 14.56 15.1631 15.848C15.1631 17.7707 14.4631 19.18 13.0631 20.076C11.6818 20.9533 9.90843 21.3827 7.74309 21.364C5.12976 21.364 2.81509 20.7947 0.799094 19.656V16.52C2.79643 17.808 5.03643 18.452 7.51909 18.452C10.4498 18.452 11.9151 17.64 11.9151 16.016C11.9151 15.3067 11.6351 14.7 11.0751 14.196C10.5338 13.692 9.84309 13.3093 9.00309 13.048C8.18176 12.7867 7.28576 12.4787 6.31509 12.124C5.34443 11.7507 4.43909 11.368 3.59909 10.976C2.77776 10.5653 2.08709 9.968 1.52709 9.184C0.98576 8.4 0.715094 7.46667 0.715094 6.384ZM18.1601 19.488C16.7414 18.2373 16.0321 16.5013 16.0321 14.28C16.0321 12.0587 16.7414 10.3227 18.1601 9.072C19.5974 7.82133 21.3148 7.196 23.3121 7.196C25.3281 7.196 27.0454 7.82133 28.4641 9.072C29.8828 10.3227 30.5921 12.0587 30.5921 14.28C30.5921 16.5013 29.8828 18.2373 28.4641 19.488C27.0454 20.7387 25.3281 21.364 23.3121 21.364C21.3148 21.364 19.5974 20.7387 18.1601 19.488ZM26.3641 17.444C27.1481 16.6413 27.5401 15.5867 27.5401 14.28C27.5401 12.9733 27.1481 11.928 26.3641 11.144C25.5801 10.3413 24.5628 9.94 23.3121 9.94C22.0428 9.94 21.0161 10.3413 20.2321 11.144C19.4481 11.928 19.0561 12.9733 19.0561 14.28C19.0561 15.5867 19.4481 16.6413 20.2321 17.444C21.0161 18.228 22.0428 18.62 23.3121 18.62C24.5628 18.62 25.5801 18.228 26.3641 17.444ZM42.2411 7.56H45.2371V21H42.5771V19.152C41.3451 20.6267 39.7864 21.364 37.9011 21.364C36.1651 21.364 34.8024 20.86 33.8131 19.852C32.8424 18.844 32.3571 17.5187 32.3571 15.876V7.56H35.3531V15.484C35.3531 17.6307 36.3984 18.704 38.4891 18.704C39.9638 18.704 41.2144 17.9573 42.2411 16.464V7.56ZM48.0414 0.559999H51.0374V21H48.0414V0.559999ZM56.8447 21H53.8487V7.56H56.5087V9.24C57.722 7.87733 59.2153 7.196 60.9887 7.196C62.93 7.196 64.33 7.91467 65.1887 9.352C66.626 7.91467 68.194 7.196 69.8927 7.196C71.5727 7.196 72.842 7.71867 73.7007 8.764C74.5593 9.80933 74.9887 11.088 74.9887 12.6V21H71.9927V12.684C71.9927 11.8253 71.75 11.144 71.2647 10.64C70.798 10.1173 70.154 9.856 69.3327 9.856C68.1193 9.856 67.0087 10.4627 66.0007 11.676C66.038 12.0867 66.0567 12.3947 66.0567 12.6V21H63.0607V12.684C63.0607 11.8253 62.818 11.144 62.3327 10.64C61.866 10.1173 61.222 9.856 60.4007 9.856C59.1127 9.856 57.9273 10.5467 56.8447 11.928V21ZM76.7548 14.28C76.7548 13.1227 76.9601 12.0773 77.3708 11.144C77.7814 10.192 78.3228 9.44533 78.9948 8.904C79.6668 8.344 80.3948 7.924 81.1788 7.644C81.9628 7.34533 82.7561 7.196 83.5588 7.196C84.5854 7.196 85.5094 7.35467 86.3308 7.672C87.1708 7.98933 87.8428 8.41867 88.3468 8.96C88.8508 9.50133 89.2614 10.1267 89.5788 10.836C89.8961 11.5453 90.0641 12.292 90.0828 13.076C90.1014 13.8413 90.0361 14.616 89.8868 15.4H79.7788C79.9281 16.5387 80.4881 17.3973 81.4588 17.976C82.4294 18.536 83.5868 18.816 84.9308 18.816C86.4614 18.816 87.8801 18.4987 89.1868 17.864V20.44C87.8988 21.056 86.2934 21.364 84.3708 21.364C82.1868 21.364 80.3668 20.748 78.9108 19.516C77.4734 18.284 76.7548 16.5387 76.7548 14.28ZM87.1988 13.16C87.3108 12.3947 87.0774 11.6293 86.4988 10.864C85.9388 10.08 85.0054 9.688 83.6988 9.688C82.6348 9.688 81.7201 9.996 80.9548 10.612C80.2081 11.228 79.8068 12.0773 79.7508 13.16H87.1988ZM92.9146 3.5L95.8826 2.772V7.56H100.755V10.192H95.8826V16.352C95.8826 17.2107 96.0786 17.8173 96.4706 18.172C96.8813 18.5267 97.5346 18.704 98.4306 18.704C99.3453 18.704 100.251 18.5267 101.147 18.172V20.748C100.064 21.14 98.8599 21.336 97.5346 21.336C96.1533 21.336 95.0333 20.972 94.1746 20.244C93.3346 19.516 92.9146 18.4053 92.9146 16.912V10.192H90.5066V7.56H92.9146V3.5ZM101.743 14.28C101.743 13.1227 101.948 12.0773 102.359 11.144C102.77 10.192 103.311 9.44533 103.983 8.904C104.655 8.344 105.383 7.924 106.167 7.644C106.951 7.34533 107.744 7.196 108.547 7.196C109.574 7.196 110.498 7.35467 111.319 7.672C112.159 7.98933 112.831 8.41867 113.335 8.96C113.839 9.50133 114.25 10.1267 114.567 10.836C114.884 11.5453 115.052 12.292 115.071 13.076C115.09 13.8413 115.024 14.616 114.875 15.4H104.767C104.916 16.5387 105.476 17.3973 106.447 17.976C107.418 18.536 108.575 18.816 109.919 18.816C111.45 18.816 112.868 18.4987 114.175 17.864V20.44C112.887 21.056 111.282 21.364 109.359 21.364C107.175 21.364 105.355 20.748 103.899 19.516C102.462 18.284 101.743 16.5387 101.743 14.28ZM112.187 13.16C112.299 12.3947 112.066 11.6293 111.487 10.864C110.927 10.08 109.994 9.688 108.687 9.688C107.623 9.688 106.708 9.996 105.943 10.612C105.196 11.228 104.795 12.0773 104.739 13.16H112.187ZM119.583 9.772C120.106 8.932 120.88 8.27867 121.907 7.812C122.934 7.34533 124.044 7.168 125.239 7.28V10.22C124.044 10.052 122.962 10.2107 121.991 10.696C121.02 11.1813 120.33 11.9 119.919 12.852V21H116.923V7.56H119.583V9.772Z" fill="black"/>
</svg>
